<svg width="342" height="342" xmlns="http://www.w3.org/2000/svg" xmlns:xlink="http://www.w3.org/1999/xlink" xml:space="preserve" overflow="hidden"><g transform="translate(-346 -66)"><path d="M531.606 358.481 420.812 312.525 502.037 115.519 613.188 161.475 531.606 358.481ZM555.475 108.75 580.056 119.081C583.619 120.506 585.044 124.425 583.619 127.631 582.194 131.194 578.275 132.619 575.069 131.194L550.487 120.863C546.925 119.438 545.5 115.519 546.925 112.312 547.994 109.106 551.912 107.325 555.475 108.75ZM640.619 129.413 505.244 73.4812C501.681 72.0563 498.119 73.8375 496.694 77.0437L389.819 335.681C388.394 339.244 390.175 342.806 393.381 344.231L528.756 400.163C532.319 401.587 535.881 399.806 537.306 396.6L643.825 137.962C645.606 134.756 643.825 130.837 640.619 129.413L640.619 129.413Z"/><path d="M596.8 339.244 588.606 327.131 604.637 316.444 600.006 292.931 619.956 279.394 615.325 255.881 635.275 242.7 631.356 223.819 645.25 220.969 650.95 249.113 631 262.65 635.631 286.162 615.681 299.344 620.669 323.212Z"/><path d="M388.394 253.387 383.05 224.887 403 211.706 398.013 188.194 417.962 174.656 413.331 151.144 437.2 135.112 445.394 146.869 429.362 157.556 433.994 181.069 414.044 194.606 418.675 218.119 398.725 231.656 402.644 250.537Z"/></g></svg>